<svg xmlns="http://www.w3.org/2000/svg" width="36" height="36" viewBox="0 0 36 36">
    <path fill="#FFF" fill-rule="nonzero" d="M26 7.13H10.913A2.783 2.783 0 0 0 8.13 9.913V25a2.783 2.783 0 0 0 2.783 2.783h7.44l.014-7.38h-1.918a.452.452 0 0 1-.452-.45l-.01-2.38a.453.453 0 0 1 .453-.454h1.914V14.82c0-2.667 1.63-4.12 4.009-4.12h1.952c.25 0 .453.203.453.453v2.006c0 .25-.203.452-.452.452h-1.199c-1.294 0-1.544.616-1.544 1.518v1.99h2.843c.271 0 .481.237.45.506l-.283 2.379a.452.452 0 0 1-.449.399h-2.549l-.012 7.38H26A2.783 2.783 0 0 0 28.783 25V9.913A2.783 2.783 0 0 0 26 7.13"/>
</svg>
