<svg xmlns="http://www.w3.org/2000/svg" width="36" height="36" viewBox="0 0 36 36">
    <g fill="#3B1E1E" fill-rule="evenodd">
        <path d="M14.938 18.225h1.615l-.774-2.428z"/>
        <path d="M26.942 20.657l-1.836-2.503-.42.335v1.889c0 .561-1.429.563-1.429.002-.001-.356.03-5.158.017-5.69-.01-.293.366-.443.734-.443.343 0 .68.131.687.405.02.72 0 2.024 0 2.024s2.073-2.076 2.367-2.368c.305-.303 1.247.646.944.948-.523.519-1.847 1.95-1.847 1.95l1.95 2.567c.37.49-.797 1.374-1.167.884m-4.498.11c-.655 0-2.13.007-2.796.007-.665 0-.554-.777-.554-.777s-.003-3.9-.006-5.114c-.001-.426.376-.64.754-.64.377 0 .753.213.754.638.001.875-.004 4.485-.004 4.485s1.193.008 1.848.008c.654 0 .658 1.392.004 1.392m-5.166-.326c-.339-.893-.252-.934-.252-.934H14.48l-.279.974c-.298.683-1.578.127-1.28-.556.41-.945 1.647-4.51 1.99-5.263.135-.3.454-.42.782-.42.394 0 .803.174.917.42.246.527 1.6 4.245 1.992 5.277.273.723-1.05 1.224-1.323.502m-5.318-4.83l-.006 4.682c.001.65-1.444.658-1.447.006.008-.89-.001-4.682-.001-4.682H9.114c-.818 0-.82-1.368-.003-1.368 0 0 3.26-.006 4.236-.006.866.001.865 1.367-.003 1.366-.917-.001-1.384.001-1.384.001m6.4-9.344C10.982 6.265 5 10.994 5 16.826c0 3.797 2.534 7.125 6.338 8.987-.278 1.044-1.012 3.78-1.157 4.365-.184.726.265.717.557.521.232-.153 3.662-2.485 5.142-3.492a16.96 16.96 0 0 0 2.48.182c7.379 0 13.36-4.73 13.36-10.563 0-5.832-5.981-10.56-13.36-10.56"/>
    </g>
</svg>
